<svg id="visual" viewBox="0 0 900 600" width="900" height="600" xmlns="http://www.w3.org/2000/svg" xmlns:xlink="http://www.w3.org/1999/xlink" version="1.1"><path d="M0 450L25 452.8C50 455.7 100 461.3 150 451.3C200 441.3 250 415.7 300 421.2C350 426.7 400 463.3 450 472.8C500 482.3 550 464.7 600 463.2C650 461.7 700 476.3 750 477.3C800 478.3 850 465.7 875 459.3L900 453L900 0L875 0C850 0 800 0 750 0C700 0 650 0 600 0C550 0 500 0 450 0C400 0 350 0 300 0C250 0 200 0 150 0C100 0 50 0 25 0L0 0Z" fill="#39817d"></path><path d="M0 327L25 324.3C50 321.7 100 316.3 150 316C200 315.7 250 320.3 300 338.5C350 356.7 400 388.3 450 399.8C500 411.3 550 402.7 600 393.5C650 384.3 700 374.7 750 369.3C800 364 850 363 875 362.5L900 362L900 0L875 0C850 0 800 0 750 0C700 0 650 0 600 0C550 0 500 0 450 0C400 0 350 0 300 0C250 0 200 0 150 0C100 0 50 0 25 0L0 0Z" fill="#368983"></path><path d="M0 308L25 308.3C50 308.7 100 309.3 150 310.7C200 312 250 314 300 305C350 296 400 276 450 272.7C500 269.3 550 282.7 600 288.2C650 293.7 700 291.3 750 295.8C800 300.3 850 311.7 875 317.3L900 323L900 0L875 0C850 0 800 0 750 0C700 0 650 0 600 0C550 0 500 0 450 0C400 0 350 0 300 0C250 0 200 0 150 0C100 0 50 0 25 0L0 0Z" fill="#339089"></path><path d="M0 264L25 262.5C50 261 100 258 150 257.5C200 257 250 259 300 259.5C350 260 400 259 450 267.7C500 276.3 550 294.7 600 302.7C650 310.7 700 308.3 750 299C800 289.7 850 273.3 875 265.2L900 257L900 0L875 0C850 0 800 0 750 0C700 0 650 0 600 0C550 0 500 0 450 0C400 0 350 0 300 0C250 0 200 0 150 0C100 0 50 0 25 0L0 0Z" fill="#2f988f"></path><path d="M0 235L25 226.8C50 218.7 100 202.3 150 204.5C200 206.7 250 227.3 300 239.8C350 252.3 400 256.7 450 247.2C500 237.7 550 214.3 600 208.8C650 203.3 700 215.7 750 210C800 204.3 850 180.7 875 168.8L900 157L900 0L875 0C850 0 800 0 750 0C700 0 650 0 600 0C550 0 500 0 450 0C400 0 350 0 300 0C250 0 200 0 150 0C100 0 50 0 25 0L0 0Z" fill="#2ba095"></path><path d="M0 194L25 197.3C50 200.7 100 207.3 150 204.2C200 201 250 188 300 172.5C350 157 400 139 450 144.7C500 150.3 550 179.7 600 183.2C650 186.7 700 164.3 750 151.3C800 138.3 850 134.7 875 132.8L900 131L900 0L875 0C850 0 800 0 750 0C700 0 650 0 600 0C550 0 500 0 450 0C400 0 350 0 300 0C250 0 200 0 150 0C100 0 50 0 25 0L0 0Z" fill="#25a89b"></path><path d="M0 139L25 133.3C50 127.7 100 116.3 150 118C200 119.7 250 134.3 300 138.5C350 142.7 400 136.3 450 136.3C500 136.3 550 142.7 600 145.2C650 147.7 700 146.3 750 141C800 135.7 850 126.3 875 121.7L900 117L900 0L875 0C850 0 800 0 750 0C700 0 650 0 600 0C550 0 500 0 450 0C400 0 350 0 300 0C250 0 200 0 150 0C100 0 50 0 25 0L0 0Z" fill="#1eb0a0"></path><path d="M0 65L25 65C50 65 100 65 150 66.7C200 68.3 250 71.7 300 75.8C350 80 400 85 450 80C500 75 550 60 600 55.8C650 51.7 700 58.3 750 61.7C800 65 850 65 875 65L900 65L900 0L875 0C850 0 800 0 750 0C700 0 650 0 600 0C550 0 500 0 450 0C400 0 350 0 300 0C250 0 200 0 150 0C100 0 50 0 25 0L0 0Z" fill="#14b8a6"></path></svg>